<svg width="16" height="16" viewBox="0 0 16 16" fill="none" xmlns="http://www.w3.org/2000/svg">
<path d="M8 0C6.41775 0 4.87103 0.469192 3.55544 1.34824C2.23985 2.22729 1.21447 3.47672 0.608967 4.93853C0.00346625 6.40034 -0.15496 8.00887 0.153721 9.56072C0.462403 11.1126 1.22433 12.538 2.34315 13.6569C3.46197 14.7757 4.88743 15.5376 6.43928 15.8463C7.99113 16.155 9.59966 15.9965 11.0615 15.391C12.5233 14.7855 13.7727 13.7602 14.6518 12.4446C15.5308 11.129 16 9.58225 16 8C15.9937 5.88022 15.1488 3.84906 13.6499 2.35014C12.1509 0.851219 10.1198 0.00633091 8 0V0ZM8.5 13H7.5C7.3674 13 7.24022 12.9473 7.14645 12.8536C7.05268 12.7598 7 12.6326 7 12.5V7.5C7 7.36739 7.05268 7.24021 7.14645 7.14645C7.24022 7.05268 7.3674 7 7.5 7H8.5C8.63261 7 8.75979 7.05268 8.85356 7.14645C8.94733 7.24021 9 7.36739 9 7.5V12.5C9 12.6326 8.94733 12.7598 8.85356 12.8536C8.75979 12.9473 8.63261 13 8.5 13ZM8 5C7.86659 5.00802 7.73299 4.98765 7.60803 4.94023C7.48307 4.89281 7.36959 4.81943 7.27508 4.72492C7.18058 4.63041 7.10719 4.51693 7.05977 4.39197C7.01236 4.26701 6.99198 4.13341 7 4C6.99198 3.86659 7.01236 3.73299 7.05977 3.60803C7.10719 3.48307 7.18058 3.36959 7.27508 3.27508C7.36959 3.18057 7.48307 3.10719 7.60803 3.05977C7.73299 3.01235 7.86659 2.99198 8 3C8.13342 2.99198 8.26701 3.01235 8.39197 3.05977C8.51693 3.10719 8.63041 3.18057 8.72492 3.27508C8.81943 3.36959 8.89282 3.48307 8.94023 3.60803C8.98765 3.73299 9.00802 3.86659 9 4C9.00802 4.13341 8.98765 4.26701 8.94023 4.39197C8.89282 4.51693 8.81943 4.63041 8.72492 4.72492C8.63041 4.81943 8.51693 4.89281 8.39197 4.94023C8.26701 4.98765 8.13342 5.00802 8 5Z" fill="#18141B"/>
</svg>
