<svg width="32" height="32" viewBox="0 0 32 32" fill="none" xmlns="http://www.w3.org/2000/svg">
<path d="M7 31C8.65685 31 10 29.6569 10 28C10 26.3431 8.65685 25 7 25C5.34315 25 4 26.3431 4 28C4 29.6569 5.34315 31 7 31Z" stroke="white" stroke-miterlimit="10" stroke-linecap="square"/>
<path d="M28 31C29.6569 31 31 29.6569 31 28C31 26.3431 29.6569 25 28 25C26.3431 25 25 26.3431 25 28C25 29.6569 26.3431 31 28 31Z" stroke="white" stroke-miterlimit="10" stroke-linecap="square"/>
<path d="M5 5H30L27 21H1" stroke="white" stroke-miterlimit="10" stroke-linecap="square"/>
<path d="M3 17H9" stroke="white" stroke-miterlimit="10" stroke-linecap="square"/>
<path d="M5 13H11" stroke="white" stroke-miterlimit="10" stroke-linecap="square"/>
<path d="M1 1H5V9" stroke="white" stroke-miterlimit="10" stroke-linecap="square"/>
</svg>
