<svg width="32" height="32" viewBox="0 0 32 32" fill="none" xmlns="http://www.w3.org/2000/svg">
<path d="M23.4312 14.0049L28.2002 25.1329C28.4357 25.6836 28.501 26.2922 28.3877 26.8803C28.2743 27.4684 27.9875 28.0092 27.5642 28.4329L26.0002 29.9999L18.5752 18.8619" stroke="white" stroke-miterlimit="10"/>
<path d="M17.9722 8.59164L6.92315 3.85564C6.37236 3.62024 5.76371 3.55511 5.17558 3.66864C4.58744 3.78216 4.04676 4.06915 3.62315 4.49264L2.05615 6.05564L13.1272 13.4366" stroke="white" stroke-miterlimit="10"/>
<path d="M14.9081 22.5288L4.94909 28.8088C4.70408 28.9561 4.4168 29.0173 4.133 28.9825C3.8492 28.9477 3.58519 28.819 3.38301 28.6168C3.18083 28.4147 3.05211 28.1507 3.01733 27.8669C2.98255 27.5831 3.04372 27.2958 3.19109 27.0508L9.47109 17.0918L23.4381 3.12576C24.159 2.40495 25.1367 2 26.1561 2C27.1755 2 28.1532 2.40495 28.8741 3.12576V3.12576C29.5949 3.84664 29.9999 4.82433 29.9999 5.84376C29.9999 6.8632 29.5949 7.84088 28.8741 8.56176L14.9081 22.5288Z" stroke="white" stroke-miterlimit="10" stroke-linecap="square"/>
<path d="M7.881 19.9996L2 19.9966L5.484 23.5996" stroke="white" stroke-miterlimit="10" stroke-linecap="square"/>
<path d="M8.39893 26.5147L11.9999 29.9997V24.1187" stroke="white" stroke-miterlimit="10" stroke-linecap="square"/>
</svg>
