<svg width="64" height="64" viewBox="0 0 64 64" fill="none" xmlns="http://www.w3.org/2000/svg">
<path fill-rule="evenodd" clip-rule="evenodd" d="M55 2H9C8.73478 2 8.48043 1.89464 8.29289 1.70711C8.10536 1.51957 8 1.26522 8 1C8 0.734784 8.10536 0.48043 8.29289 0.292893C8.48043 0.105357 8.73478 0 9 0H55C55.2652 0 55.5196 0.105357 55.7071 0.292893C55.8946 0.48043 56 0.734784 56 1C56 1.26522 55.8946 1.51957 55.7071 1.70711C55.5196 1.89464 55.2652 2 55 2ZM55 62H9C8.73478 62 8.48043 61.8946 8.29289 61.7071C8.10536 61.5196 8 61.2652 8 61C8 60.7348 8.10536 60.4804 8.29289 60.2929C8.48043 60.1054 8.73478 60 9 60H55C55.2652 60 55.5196 60.1054 55.7071 60.2929C55.8946 60.4804 56 60.7348 56 61C56 61.2652 55.8946 61.5196 55.7071 61.7071C55.5196 61.8946 55.2652 62 55 62ZM51 4V11.894C51.0029 14.1195 50.3276 16.293 49.064 18.125L40.214 31L49.064 43.875C50.3276 45.707 51.0029 47.8805 51 50.106V58H13V50.106C12.9971 47.8805 13.6724 45.707 14.936 43.875L23.786 31L14.936 18.125C13.6724 16.293 12.9971 14.1195 13 11.894V4H51ZM42 50.728C42.0013 49.9189 41.7572 49.1285 41.3 48.461L33.652 37.335C33.4683 37.0669 33.2221 36.8476 32.9346 36.696C32.6471 36.5445 32.327 36.4653 32.002 36.4653C31.677 36.4653 31.3569 36.5445 31.0694 36.696C30.7819 36.8476 30.5357 37.0669 30.352 37.335L22.7 48.461C22.243 49.1282 21.9989 49.9183 22 50.727V52H42V50.728Z" fill="url(#paint0_radial_5440_8555)"/>
<path fill-rule="evenodd" clip-rule="evenodd" d="M49 11.8966V6H15V11.8966C14.9976 13.7156 15.5496 15.4921 16.5824 16.9894L16.5842 16.9921L26.2129 31L16.5824 45.0106C15.5496 46.5079 14.9976 48.2844 15 50.1034L15 50.106L15 56H49V50.1034C49.0024 48.2844 48.4504 46.5079 47.4176 45.0106L47.4158 45.0079L37.7871 31L47.4176 16.9894C48.4504 15.4921 49.0024 13.7156 49 11.8966ZM51 58H13V50.106C12.9971 47.8805 13.6724 45.707 14.936 43.875L23.786 31L14.936 18.125C13.6724 16.293 12.9971 14.1195 13 11.894V4H51V11.894C51.0029 14.1195 50.3276 16.293 49.064 18.125L40.214 31L49.064 43.875C50.3276 45.707 51.0029 47.8805 51 50.106V58ZM55 2H9C8.73478 2 8.48043 1.89464 8.29289 1.70711C8.10536 1.51957 8 1.26522 8 1C8 0.734784 8.10536 0.48043 8.29289 0.292893C8.48043 0.105357 8.73478 0 9 0H55C55.2652 0 55.5196 0.105357 55.7071 0.292893C55.8946 0.48043 56 0.734784 56 1C56 1.26522 55.8946 1.51957 55.7071 1.70711C55.5196 1.89464 55.2652 2 55 2ZM55 62H9C8.73478 62 8.48043 61.8946 8.29289 61.7071C8.10536 61.5196 8 61.2652 8 61C8 60.7348 8.10536 60.4804 8.29289 60.2929C8.48043 60.1054 8.73478 60 9 60H55C55.2652 60 55.5196 60.1054 55.7071 60.2929C55.8946 60.4804 56 60.7348 56 61C56 61.2652 55.8946 61.5196 55.7071 61.7071C55.5196 61.8946 55.2652 62 55 62Z" fill="url(#paint1_radial_5440_8555)"/>
<defs>
<radialGradient id="paint0_radial_5440_8555" cx="0" cy="0" r="1" gradientUnits="userSpaceOnUse" gradientTransform="translate(32 31) rotate(45.9392) scale(43.1393 43.8019)">
<stop stop-color="#FFC25F"/>
<stop offset="1" stop-color="#FFC25F" stop-opacity="0"/>
</radialGradient>
<radialGradient id="paint1_radial_5440_8555" cx="0" cy="0" r="1" gradientUnits="userSpaceOnUse" gradientTransform="translate(32 31) rotate(90) scale(22 22.3379)">
<stop stop-color="#FFC25F"/>
<stop offset="1" stop-color="#FFC25F" stop-opacity="0"/>
</radialGradient>
</defs>
</svg>
