<svg width="64" height="64" viewBox="0 0 64 64" fill="none" xmlns="http://www.w3.org/2000/svg">
<path fill-rule="evenodd" clip-rule="evenodd" d="M61.0292 52.0533L37.0372 6.84528C36.5875 5.98718 35.9116 5.26847 35.0826 4.76702C34.2537 4.26557 33.3033 4.00049 32.3345 4.00049C31.3657 4.00049 30.4154 4.26557 29.5864 4.76702C28.7575 5.26847 28.0816 5.98718 27.6319 6.84528L3.63987 52.0533C3.19656 52.8816 2.9767 53.8112 3.00195 54.7504C3.0272 55.6895 3.29669 56.6059 3.78387 57.4093C4.25311 58.2003 4.9205 58.8553 5.72017 59.3096C6.51984 59.7639 7.42416 60.0018 8.34387 59.9999H56.3252C57.2449 60.0018 58.1492 59.7639 58.9489 59.3096C59.7486 58.8553 60.416 58.2003 60.8852 57.4093C61.3724 56.6059 61.6419 55.6895 61.6671 54.7504C61.6924 53.8112 61.4725 52.8816 61.0292 52.0533ZM35.3825 21.3333L33.8585 43.428H30.8105L29.2865 21.3333H35.3825ZM36.3346 50.6667C36.3346 52.8758 34.5438 54.6667 32.3346 54.6667C30.1255 54.6667 28.3346 52.8758 28.3346 50.6667C28.3346 48.4575 30.1255 46.6667 32.3346 46.6667C34.5438 46.6667 36.3346 48.4575 36.3346 50.6667Z" fill="url(#paint0_radial_5440_8522)"/>
<path opacity="0.2" fill-rule="evenodd" clip-rule="evenodd" d="M59.2658 52.997L59.2626 52.9908L35.2657 7.77368C34.9854 7.2388 34.5641 6.79083 34.0474 6.47827C33.5308 6.16572 32.9384 6.00049 32.3345 6.00049C31.7307 6.00049 31.1383 6.16572 30.6216 6.47827C30.105 6.79083 29.6836 7.2388 29.4033 7.77366L29.3985 7.78285L5.40324 52.997C5.12387 53.519 4.98532 54.1048 5.00123 54.6966C5.01714 55.2885 5.18697 55.866 5.49398 56.3722L5.49901 56.3805L5.50397 56.3889C5.79578 56.8808 6.21082 57.2881 6.70812 57.5706C7.20543 57.8531 7.7678 58.0011 8.33975 58L8.34387 57.9999L56.3293 57.9999C56.9013 58.0011 57.4636 57.8531 57.9609 57.5706C58.4583 57.2881 58.8733 56.8808 59.1651 56.3889L59.1701 56.3805L59.1751 56.3722C59.4821 55.866 59.6519 55.2885 59.6678 54.6966C59.6838 54.1048 59.5452 53.519 59.2658 52.997ZM61.0292 52.0533L37.0372 6.84528C36.5875 5.98718 35.9116 5.26847 35.0826 4.76702C34.2537 4.26557 33.3033 4.00049 32.3345 4.00049C31.3657 4.00049 30.4154 4.26557 29.5864 4.76702C28.7575 5.26847 28.0816 5.98718 27.6319 6.84528L3.63987 52.0533C3.19656 52.8816 2.9767 53.8112 3.00195 54.7504C3.0272 55.6895 3.29669 56.6059 3.78387 57.4093C4.25311 58.2003 4.9205 58.8553 5.72017 59.3096C6.51984 59.7639 7.42416 60.0018 8.34387 59.9999H56.3252C57.2449 60.0018 58.1492 59.7639 58.9489 59.3096C59.7486 58.8553 60.416 58.2003 60.8852 57.4093C61.3724 56.6059 61.6419 55.6895 61.6671 54.7504C61.6924 53.8112 61.4725 52.8816 61.0292 52.0533Z" fill="url(#paint1_radial_5440_8522)"/>
<defs>
<radialGradient id="paint0_radial_5440_8522" cx="0" cy="0" r="1" gradientUnits="userSpaceOnUse" gradientTransform="translate(32.3345 32.0002) rotate(90.3651) scale(52.5008 55.0037)">
<stop stop-color="#F04679"/>
<stop offset="1" stop-color="#F04679" stop-opacity="0"/>
</radialGradient>
<radialGradient id="paint1_radial_5440_8522" cx="0" cy="0" r="1" gradientUnits="userSpaceOnUse" gradientTransform="translate(32.3345 32.0002) rotate(43.6675) scale(40.5517 42.4848)">
<stop stop-color="#F04679"/>
<stop offset="1" stop-color="#F04679" stop-opacity="0"/>
</radialGradient>
</defs>
</svg>
