<svg width="64" height="64" viewBox="0 0 64 64" fill="none" xmlns="http://www.w3.org/2000/svg">
<path fill-rule="evenodd" clip-rule="evenodd" d="M58.3333 9.53867H61C61.736 9.53867 62.3333 10.136 62.3333 10.872V13.5387C62.3333 36.42 51.4587 54.7413 33.2427 62.548L32.192 62.9987C32.0253 63.0707 31.8453 63.1067 31.6667 63.1067C31.488 63.1067 31.308 63.0707 31.1413 62.9987L30.0907 62.548C11.8747 54.7413 1 36.42 1 13.5387V10.872C1 10.136 1.59733 9.53867 2.33333 9.53867H5C13.1747 9.53867 22.7707 6.66267 29.4493 2.21067L30.928 1.224C31.376 0.925333 31.9587 0.925333 32.4067 1.224L33.8853 2.21067C40.5627 6.66267 50.1587 9.53867 58.3333 9.53867ZM22.4 28.5L20 31L28 40L44 25L41.6 22.5L28 33L22.4 28.5Z" fill="url(#paint0_radial_5654_6773)"/>
<path fill-rule="evenodd" clip-rule="evenodd" d="M32.7752 3.8743L31.6673 3.13503L30.5594 3.87431C23.5458 8.54957 13.5617 11.5387 5 11.5387H3V13.5387C3 35.7763 13.5317 53.2755 30.8785 60.7097L31.6667 61.0478L32.4543 60.7099C49.8011 53.2758 60.3333 35.7763 60.3333 13.5387V11.5387H58.3333C49.7717 11.5387 39.7876 8.54969 32.7752 3.8743ZM32.4067 1.224L33.8853 2.21067C40.5627 6.66267 50.1587 9.53867 58.3333 9.53867H61C61.736 9.53867 62.3333 10.136 62.3333 10.872V13.5387C62.3333 36.42 51.4587 54.7413 33.2427 62.548L32.192 62.9987C32.0253 63.0707 31.8453 63.1067 31.6667 63.1067C31.488 63.1067 31.308 63.0707 31.1413 62.9987L30.0907 62.548C11.8747 54.7413 1 36.42 1 13.5387V10.872C1 10.136 1.59733 9.53867 2.33333 9.53867H5C13.1747 9.53867 22.7707 6.66267 29.4493 2.21067L30.928 1.224C31.376 0.925333 31.9587 0.925333 32.4067 1.224Z" fill="url(#paint1_radial_5654_6773)"/>
<defs>
<radialGradient id="paint0_radial_5654_6773" cx="0" cy="0" r="1" gradientUnits="userSpaceOnUse" gradientTransform="translate(31.6667 32.0533) rotate(89.6556) scale(55.4477 58.1493)">
<stop stop-color="#00DEAE"/>
<stop offset="1" stop-color="#00DEAE" stop-opacity="0"/>
</radialGradient>
<radialGradient id="paint1_radial_5654_6773" cx="0" cy="0" r="1" gradientUnits="userSpaceOnUse" gradientTransform="translate(31.6667 32.0533) rotate(89.3829) scale(30.9485 32.4564)">
<stop stop-color="#00DEAE"/>
<stop offset="1" stop-color="#00DEAE" stop-opacity="0"/>
</radialGradient>
</defs>
</svg>
