<svg width="24" height="24" viewBox="0 0 24 24" fill="none" xmlns="http://www.w3.org/2000/svg">
<path d="M24 12C24 18.627 18.627 24 12 24C5.37296 24 0 18.627 0 12C0 5.37296 5.37296 0 12 0C18.6284 0 24 5.37296 24 12Z" fill="#2081E2"/>
<path d="M5.92029 12.4034L5.97207 12.3221L9.09375 7.4386C9.13935 7.36708 9.24663 7.3745 9.28114 7.45215C9.80266 8.62095 10.2527 10.0745 10.0418 10.9795C9.95183 11.3518 9.70527 11.856 9.42786 12.3221C9.3921 12.3899 9.35266 12.4565 9.31074 12.5206C9.29101 12.5501 9.25773 12.5674 9.22197 12.5674H6.01151C5.92522 12.5674 5.87469 12.4737 5.92029 12.4034Z" fill="white"/>
<path d="M19.8347 13.3104V14.0835C19.8347 14.1278 19.8075 14.1673 19.7681 14.1846C19.5264 14.2881 18.6992 14.6679 18.3552 15.1462C17.4774 16.368 16.8067 18.115 15.3075 18.115H9.05306C6.83631 18.115 5.03999 16.3125 5.03999 14.0884V14.0169C5.03999 13.9577 5.08807 13.9096 5.14727 13.9096H8.63386C8.7029 13.9096 8.75346 13.9737 8.7473 14.0415C8.72263 14.2684 8.76455 14.5002 8.87181 14.711C9.07895 15.1314 9.50799 15.394 9.97157 15.394H11.6976V14.0465H9.99127C9.90375 14.0465 9.85197 13.9454 9.90253 13.8739C9.92101 13.8455 9.94197 13.8159 9.96415 13.7826C10.1257 13.5533 10.3562 13.197 10.5855 12.7914C10.7421 12.5177 10.8938 12.2255 11.0158 11.9321C11.0405 11.8791 11.0602 11.8248 11.0799 11.7718C11.1132 11.6781 11.1477 11.5906 11.1724 11.503C11.197 11.4291 11.2168 11.3514 11.2365 11.2786C11.2944 11.0296 11.3191 10.7658 11.3191 10.492C11.3191 10.3848 11.3142 10.2726 11.3043 10.1653C11.2994 10.0482 11.2846 9.93109 11.2698 9.81397C11.2599 9.71039 11.2414 9.60807 11.2217 9.50082C11.197 9.34423 11.1625 9.1889 11.1231 9.03231L11.1095 8.97314C11.0799 8.86589 11.0553 8.76354 11.0207 8.65628C10.9234 8.3197 10.8111 7.99175 10.6928 7.68476C10.6496 7.56271 10.6003 7.44559 10.551 7.32847C10.4783 7.15215 10.4043 6.99188 10.3365 6.84023C10.302 6.77119 10.2724 6.70831 10.2428 6.6442C10.2095 6.57146 10.175 6.49874 10.1405 6.42967C10.1158 6.37666 10.0874 6.32735 10.0677 6.27804L9.8569 5.88844C9.8273 5.83543 9.87663 5.77255 9.93455 5.78858L11.2538 6.14612H11.2575C11.2599 6.14612 11.2612 6.14735 11.2624 6.14735L11.4362 6.19543L11.6273 6.24967L11.6976 6.2694V5.4853C11.6976 5.10679 12.0009 4.7998 12.3757 4.7998C12.5631 4.7998 12.7332 4.87623 12.8553 5.00076C12.9773 5.1253 13.0538 5.29543 13.0538 5.4853V6.64914L13.1943 6.68858C13.2054 6.69228 13.2165 6.69722 13.2264 6.7046C13.2609 6.7305 13.3102 6.76874 13.3731 6.81556C13.4224 6.85503 13.4754 6.90311 13.5395 6.95242C13.6665 7.05476 13.8182 7.18668 13.9846 7.33831C14.029 7.37655 14.0722 7.41599 14.1116 7.45546C14.3261 7.65516 14.5665 7.88943 14.7959 8.14834C14.86 8.22106 14.9228 8.29503 14.987 8.37271C15.0511 8.45162 15.1189 8.5293 15.178 8.60698C15.2557 8.71053 15.3395 8.81778 15.4123 8.92999C15.4468 8.98301 15.4863 9.03724 15.5196 9.09026C15.6132 9.23204 15.6959 9.37876 15.7748 9.52546C15.808 9.59327 15.8426 9.66724 15.8722 9.73999C15.9597 9.93602 16.0287 10.1358 16.0731 10.3355C16.0867 10.3786 16.0966 10.4255 16.1015 10.4674V10.4772C16.1163 10.5364 16.1212 10.5993 16.1261 10.6634C16.1459 10.8681 16.136 11.0727 16.0916 11.2786C16.0731 11.3662 16.0485 11.4488 16.0189 11.5363C15.9893 11.6202 15.9597 11.7077 15.9215 11.7903C15.8475 11.9616 15.76 12.133 15.6564 12.2933C15.6231 12.3525 15.5837 12.4154 15.5442 12.4745C15.5011 12.5374 15.4567 12.5966 15.4172 12.6546C15.363 12.7285 15.305 12.8062 15.2459 12.8752C15.1928 12.948 15.1386 13.0207 15.0794 13.0848C14.9968 13.1822 14.9179 13.2747 14.8353 13.3635C14.786 13.4214 14.733 13.4806 14.6787 13.5336C14.6257 13.5928 14.5715 13.6458 14.5222 13.6951C14.4395 13.7777 14.3705 13.8418 14.3126 13.8948L14.1769 14.0194C14.1572 14.0366 14.1313 14.0465 14.1042 14.0465H13.0538V15.394H14.3754C14.6713 15.394 14.9524 15.2892 15.1793 15.0969C15.257 15.0291 15.596 14.7356 15.9967 14.2931C16.0102 14.2783 16.0275 14.2672 16.0472 14.2622L19.6978 13.2069C19.7656 13.1871 19.8347 13.2389 19.8347 13.3104Z" fill="white"/>
</svg>
